<svg width="262" height="60" viewBox="0 0 262 60" fill="none" xmlns="http://www.w3.org/2000/svg">
<path d="M0 10.8009C0 4.83573 4.83573 0 10.8009 0H48.9218C54.8869 0 59.7227 4.83573 59.7227 10.8009V48.9218C59.7227 54.8869 54.8869 59.7227 48.9218 59.7227H10.8009C4.83573 59.7227 0 54.8869 0 48.9218V10.8009Z" fill="url(#paint0_linear_3445_5016)"/>
<path fill-rule="evenodd" clip-rule="evenodd" d="M32.2417 11.3525C31.2684 9.65854 28.8351 9.65854 27.8618 11.3525L10.616 41.3674C9.64269 43.0613 10.8593 45.1788 12.8059 45.1788H24.6782V30.4154C24.6782 29.7105 25.2468 29.1391 25.9483 29.1391H34.1552C34.8566 29.1391 35.4253 29.7105 35.4253 30.4154V45.0142C35.4253 45.07 35.4217 45.1249 35.4148 45.1788H47.2975C49.2441 45.1788 50.4608 43.0613 49.4874 41.3674L32.2417 11.3525Z" fill="#FFFF00"/>
<path d="M255.289 41.5575L248.778 33.3843V41.5575H243.93V15.9297H248.778V30.5098L255.22 22.3713H261.523L253.073 31.999L261.592 41.5575H255.289Z" fill="white"/>
<path d="M231.663 22.1016C233.949 22.1016 235.796 22.8288 237.204 24.2834C238.613 25.7149 239.317 27.7235 239.317 30.3094V41.5648H234.469V30.9674C234.469 29.4436 234.088 28.2776 233.326 27.4695C232.564 26.6384 231.525 26.2228 230.209 26.2228C228.87 26.2228 227.808 26.6384 227.023 27.4695C226.261 28.2776 225.88 29.4436 225.88 30.9674V41.5648H221.031V22.3786H225.88V24.7682C226.526 23.9371 227.346 23.2906 228.339 22.8288C229.355 22.344 230.463 22.1016 231.663 22.1016Z" fill="white"/>
<path d="M207.466 41.8721C205.619 41.8721 203.957 41.4681 202.479 40.66C201.001 39.8288 199.835 38.6629 198.981 37.1621C198.15 35.6614 197.734 33.9298 197.734 31.9673C197.734 30.0048 198.162 28.2732 199.016 26.7725C199.893 25.2717 201.082 24.1173 202.583 23.3093C204.084 22.4781 205.757 22.0625 207.605 22.0625C209.452 22.0625 211.125 22.4781 212.626 23.3093C214.127 24.1173 215.304 25.2717 216.159 26.7725C217.036 28.2732 217.475 30.0048 217.475 31.9673C217.475 33.9298 217.025 35.6614 216.124 37.1621C215.247 38.6629 214.046 39.8288 212.522 40.66C211.022 41.4681 209.336 41.8721 207.466 41.8721ZM207.466 37.647C208.343 37.647 209.163 37.4392 209.925 37.0236C210.71 36.5849 211.333 35.9385 211.795 35.0842C212.257 34.2299 212.488 33.191 212.488 31.9673C212.488 30.1433 212.003 28.7465 211.033 27.7768C210.087 26.784 208.921 26.2876 207.535 26.2876C206.15 26.2876 204.984 26.784 204.037 27.7768C203.114 28.7465 202.652 30.1433 202.652 31.9673C202.652 33.7913 203.102 35.1996 204.003 36.1924C204.926 37.1621 206.081 37.647 207.466 37.647Z" fill="white"/>
<path d="M186.483 22.1016C188.838 22.1016 190.731 22.8288 192.163 24.2834C193.617 25.7149 194.345 27.7235 194.345 30.3094V41.5648H189.496V30.9674C189.496 29.4667 189.115 28.3238 188.353 27.5388C187.591 26.7307 186.552 26.3267 185.236 26.3267C183.92 26.3267 182.87 26.7307 182.085 27.5388C181.323 28.3238 180.942 29.4667 180.942 30.9674V41.5648H176.094V30.9674C176.094 29.4667 175.713 28.3238 174.951 27.5388C174.189 26.7307 173.15 26.3267 171.834 26.3267C170.495 26.3267 169.433 26.7307 168.648 27.5388C167.886 28.3238 167.505 29.4667 167.505 30.9674V41.5648H162.656V22.3786H167.505V24.699C168.128 23.8909 168.925 23.256 169.894 22.7942C170.887 22.3324 171.972 22.1016 173.15 22.1016C174.651 22.1016 175.99 22.4248 177.167 23.0713C178.345 23.6946 179.257 24.5951 179.903 25.7726C180.526 24.6643 181.427 23.7755 182.604 23.1059C183.805 22.4363 185.098 22.1016 186.483 22.1016Z" fill="white"/>
<path d="M149.091 41.8721C147.244 41.8721 145.582 41.4681 144.104 40.66C142.626 39.8288 141.46 38.6629 140.606 37.1621C139.775 35.6614 139.359 33.9298 139.359 31.9673C139.359 30.0048 139.787 28.2732 140.641 26.7725C141.518 25.2717 142.707 24.1173 144.208 23.3093C145.709 22.4781 147.382 22.0625 149.23 22.0625C151.077 22.0625 152.75 22.4781 154.251 23.3093C155.752 24.1173 156.929 25.2717 157.784 26.7725C158.661 28.2732 159.1 30.0048 159.1 31.9673C159.1 33.9298 158.649 35.6614 157.749 37.1621C156.872 38.6629 155.671 39.8288 154.147 40.66C152.647 41.4681 150.961 41.8721 149.091 41.8721ZM149.091 37.647C149.968 37.647 150.788 37.4392 151.55 37.0236C152.335 36.5849 152.958 35.9385 153.42 35.0842C153.882 34.2299 154.113 33.191 154.113 31.9673C154.113 30.1433 153.628 28.7465 152.658 27.7768C151.712 26.784 150.546 26.2876 149.16 26.2876C147.775 26.2876 146.609 26.784 145.662 27.7768C144.739 28.7465 144.277 30.1433 144.277 31.9673C144.277 33.7913 144.727 35.1996 145.628 36.1924C146.551 37.1621 147.706 37.647 149.091 37.647Z" fill="white"/>
<path d="M121.95 25.1448C122.573 24.2674 123.428 23.5401 124.513 22.9629C125.621 22.3626 126.879 22.0625 128.288 22.0625C129.927 22.0625 131.405 22.4665 132.721 23.2746C134.06 24.0827 135.11 25.2371 135.872 26.7378C136.657 28.2155 137.05 29.9355 137.05 31.898C137.05 33.8605 136.657 35.6037 135.872 37.1275C135.11 38.6282 134.06 39.7942 132.721 40.6253C131.405 41.4565 129.927 41.8721 128.288 41.8721C126.879 41.8721 125.633 41.5835 124.547 41.0063C123.485 40.4291 122.62 39.7018 121.95 38.8245V50.7033H117.102V22.3742H121.95V25.1448ZM132.097 31.898C132.097 30.7436 131.855 29.7508 131.37 28.9197C130.908 28.0654 130.285 27.4189 129.5 26.9803C128.738 26.5416 127.907 26.3223 127.006 26.3223C126.129 26.3223 125.298 26.5531 124.513 27.0149C123.751 27.4536 123.128 28.1 122.643 28.9543C122.181 29.8086 121.95 30.8129 121.95 31.9673C121.95 33.1217 122.181 34.126 122.643 34.9803C123.128 35.8346 123.751 36.4926 124.513 36.9543C125.298 37.393 126.129 37.6123 127.006 37.6123C127.907 37.6123 128.738 37.3815 129.5 36.9197C130.285 36.4579 130.908 35.7999 131.37 34.9457C131.855 34.0914 132.097 33.0755 132.097 31.898Z" fill="white"/>
<path d="M109.924 20.0898C109.069 20.0898 108.354 19.8243 107.776 19.2933C107.222 18.7392 106.945 18.0581 106.945 17.25C106.945 16.4419 107.222 15.7724 107.776 15.2413C108.354 14.6872 109.069 14.4102 109.924 14.4102C110.778 14.4102 111.482 14.6872 112.036 15.2413C112.613 15.7724 112.902 16.4419 112.902 17.25C112.902 18.0581 112.613 18.7392 112.036 19.2933C111.482 19.8243 110.778 20.0898 109.924 20.0898ZM112.313 22.3756V41.5618H107.465V22.3756H112.313Z" fill="white"/>
<path d="M98.3173 25.357C98.9406 24.3411 99.7487 23.5446 100.742 22.9674C101.757 22.3902 102.912 22.1016 104.205 22.1016V27.1925H102.923C101.4 27.1925 100.245 27.5504 99.4601 28.2661C98.6982 28.9818 98.3173 30.2286 98.3173 32.0064V41.5648H93.4688V22.3786H98.3173V25.357Z" fill="white"/>
<path d="M89.927 17.3906V21.3041H83.4854V41.5639H78.6369V21.3041H72.1953V17.3906H89.927Z" fill="white"/>
<defs>
<linearGradient id="paint0_linear_3445_5016" x1="29.8613" y1="0" x2="29.8613" y2="59.7227" gradientUnits="userSpaceOnUse">
<stop stop-color="#0065FF"/>
<stop offset="1" stop-color="#003D99"/>
</linearGradient>
</defs>
</svg>
